<svg width="17" height="17" viewBox="0 0 17 17" fill="none" xmlns="http://www.w3.org/2000/svg">
<path d="M1.40129 2.81841L1.24989 2.43149C1.21624 2.34738 1.14895 2.26326 1.04802 2.22962L0.6611 2.06139C0.610632 2.04457 0.610632 1.96046 0.6611 1.92682L1.04802 1.77541C1.13213 1.74177 1.21624 1.67448 1.24989 1.57354L1.41811 1.18662C1.43494 1.13616 1.51905 1.13616 1.55269 1.18662L1.70409 1.57354C1.73774 1.65765 1.80503 1.74177 1.90596 1.77541L2.29288 1.94364C2.34335 1.96046 2.34335 2.04457 2.29288 2.07822L1.90596 2.22962C1.82185 2.26326 1.73774 2.33056 1.70409 2.43149L1.53587 2.81841C1.50222 2.86887 1.41811 2.86887 1.40129 2.81841ZM16.7098 8.68946C16.4743 12.8614 13.0256 16.125 8.85366 16.125C6.7172 16.125 4.71532 15.2839 3.21812 13.753C1.72092 12.2222 0.930259 10.2035 0.980726 8.06703C0.980726 7.89881 0.997548 7.73058 1.01437 7.56236C1.01437 7.51189 0.997549 7.4446 0.947082 7.41095C0.593809 7.14179 0.375117 6.72123 0.375117 6.2502C0.375117 5.45954 0.997548 4.83711 1.77138 4.80346C1.78821 4.80346 1.80503 4.80346 1.83868 4.80346C2.22559 4.80346 2.57887 4.95487 2.8312 5.20721C3.11719 5.47637 3.28541 5.84646 3.28541 6.26702C3.28541 6.9231 2.84803 7.49507 2.24241 7.66329C2.17512 7.68011 2.12466 7.7474 2.12466 7.81469C2.12466 7.91563 2.10783 7.99974 2.10783 8.10068C2.05737 10.0353 2.81438 11.8521 4.22747 13.1811C5.3714 14.2577 6.88543 14.9138 8.44992 14.9979C12.0836 15.1998 15.1621 12.525 15.549 9.00909C15.5658 8.90816 15.4817 8.82405 15.3808 8.82405H11.5284C11.4612 8.82405 11.3939 8.87451 11.377 8.9418C11.0742 10.0521 10.0481 10.8764 8.85366 10.8764C7.35646 10.8764 6.12842 9.59788 6.22935 8.08385C6.31346 6.78852 7.35646 5.74552 8.63497 5.64459C9.93031 5.54365 11.0574 6.4016 11.377 7.56236C11.3939 7.62965 11.4612 7.68011 11.5453 7.68011H15.7509C16.0201 7.68011 16.2724 7.78105 16.4406 7.98292C16.6425 8.16797 16.7266 8.43713 16.7098 8.68946ZM10.3509 8.25208C10.3509 7.42778 9.67797 6.75488 8.85366 6.75488C8.02936 6.75488 7.35646 7.42778 7.35646 8.25208C7.35646 9.07638 8.02936 9.74928 8.85366 9.74928C9.67797 9.74928 10.3509 9.07638 10.3509 8.25208ZM1.50223 6.26702C1.50223 6.45207 1.65363 6.58665 1.82185 6.58665C1.99008 6.58665 2.14148 6.43525 2.14148 6.26702C2.14148 6.0988 1.99008 5.94739 1.82185 5.94739C1.65363 5.94739 1.50223 6.08197 1.50223 6.26702ZM3.16766 4.63524C3.11719 4.71935 3.01625 4.73617 2.93214 4.68571C2.73027 4.55113 2.49475 4.45019 2.25924 4.3829C2.14148 4.36608 2.10783 4.2315 2.1583 4.13056C2.47793 3.62589 2.84802 3.13804 3.26859 2.71747C4.6985 1.27074 6.58262 0.446433 8.60133 0.379143C10.721 0.311853 12.7397 1.06887 14.2705 2.53242C14.6406 2.8857 14.8425 3.37355 14.8088 3.89505C14.7752 4.41655 14.5397 4.88758 14.1191 5.20721C13.4294 5.7287 12.4537 5.69506 11.8313 5.10627C11.6462 4.93804 11.4612 4.78664 11.2593 4.65206C11.192 4.61842 11.1247 4.61842 11.0574 4.66888C10.8051 4.87075 10.4854 5.00533 10.1322 5.00533C9.45928 5.00533 8.88731 4.55113 8.7359 3.92869C8.70226 3.81094 8.68544 3.67636 8.68544 3.5586C8.68544 3.28944 8.76955 3.02028 8.90413 2.80159C9.15647 2.38102 9.6275 2.09504 10.149 2.09504C10.9228 2.09504 11.5453 2.70065 11.5957 3.45766C11.5957 3.50813 11.6294 3.5586 11.6798 3.59224C12.0163 3.79411 12.3359 4.02963 12.6219 4.31561C12.8406 4.51748 13.1939 4.5343 13.4294 4.34926C13.5808 4.2315 13.6649 4.06327 13.6817 3.87823C13.6985 3.69318 13.6144 3.52495 13.4799 3.39037C12.1677 2.14551 10.435 1.48943 8.61815 1.5399C6.33029 1.57354 4.32841 2.81841 3.16766 4.63524ZM10.4854 3.52495C10.4854 3.33991 10.334 3.20532 10.1658 3.20532C9.99759 3.20532 9.84619 3.35673 9.84619 3.52495C9.84619 3.71 9.99759 3.8614 10.1658 3.8614C10.334 3.8614 10.4854 3.71 10.4854 3.52495ZM8.11347 2.83523C8.23123 2.81841 8.33217 2.91934 8.29852 3.0371C8.24805 3.20532 8.23123 3.35673 8.23123 3.52495C8.23123 3.60907 8.23123 3.69318 8.24805 3.77729C8.26487 3.8614 8.19759 3.94552 8.11347 3.96234C7.20506 4.11374 6.36393 4.55113 5.70785 5.24085C4.88355 6.0988 4.44617 7.22591 4.49663 8.4203C4.58075 10.6577 6.4144 12.4914 8.65179 12.5923C9.59385 12.6259 10.4854 12.3736 11.2425 11.8857C11.3098 11.8353 11.3266 11.7512 11.2929 11.667C11.2088 11.482 11.1415 11.2633 11.1415 11.0446C11.1415 10.2203 11.8313 9.54741 12.6724 9.59788C13.4126 9.63153 14.0182 10.2371 14.0518 10.9773C14.0855 11.8185 13.4294 12.5082 12.6051 12.5082C12.5378 12.5082 12.4705 12.5082 12.4032 12.4914C12.3527 12.4914 12.3023 12.4914 12.2686 12.525C11.2425 13.3493 9.96395 13.7867 8.5845 13.7194C5.75832 13.6016 3.47046 11.297 3.3527 8.47077C3.30223 6.97357 3.84055 5.54366 4.88355 4.45019C5.77514 3.5586 6.90225 2.98663 8.11347 2.83523ZM12.2855 11.0446C12.2855 11.2297 12.4369 11.3642 12.6051 11.3642C12.7733 11.3642 12.9247 11.2128 12.9247 11.0446C12.9247 10.8764 12.7733 10.725 12.6051 10.725C12.4369 10.725 12.2855 10.8596 12.2855 11.0446Z" fill="url(#paint0_linear_0_247)"/>
<defs>
<linearGradient id="paint0_linear_0_247" x1="8.5435" y1="0.375015" x2="8.5435" y2="16.125" gradientUnits="userSpaceOnUse">
<stop stop-color="#fff"/>
<stop offset="1" stop-color="#fff"/>
</linearGradient>
</defs>
</svg>
